#!OML:ASF X:\für Bonn\!DataBase\2005_08_12_Daniel\c3d\Daniel.ASF
:FULLY-SPECIFIED
:DEGREES
77
root 0.93912 17.1406 0.226771 855.321 -92.7345 -862.165
lowerback 12.0716 -3.11335 -1.47379
upperback 5.20492 -4.57658 -2.52576
thorax -1.40307 -2.37802 -1.19353
lowerneck 19.3013 3.57983 3.54573
upperneck 17.983 3.92167 -1.16002
head 2.84072 1.55687 -1.13364
rclavicle 6.13251e-014 -1.59028e-015
rhumerus -220.406 212.943 167.087
rradius 12.7159
rwrist 350.237
rhand -38.2517 3.00051
rfingers 7.12502
rthumb -11.282 -26.6761
lclavicle 6.13251e-014 -1.59028e-015
lhumerus -93.471 57.6741 -49.1963
lradius 13.9894
lwrist 9.53781
lhand -28.4413 17.385
lfingers 7.12502
lthumb -1.8121 47.357
rfemur 10.3057 19.1583 14.3003
rtibia 17.3521
rfoot -31.9363 -24.9533
rtoes -10.5254
lfemur -1.56966 -18.8809 -17.8258
ltibia 32.6133
lfoot -28.4457 5.64998
ltoes 0.680744
78
root 0.965163 17.1287 0.224944 857.253 -92.8287 -864.266
lowerback 12.3513 -3.10654 -1.47304
upperback 5.32244 -4.57992 -2.51091
thorax -1.43028 -2.38334 -1.1659
lowerneck 18.2897 3.5984 3.39858
upperneck 17.8438 3.96029 -1.03412
head 2.93523 1.59329 -1.05292
rclavicle 4.07509e-015 -5.56597e-015
rhumerus -220.724 214.148 163.933
rradius 11.1886
rwrist 353.534
rhand -37.6424 2.4607
rfingers 7.12502
rthumb -10.6943 -27.2471
lclavicle 4.07509e-015 -5.56597e-015
lhumerus -104.95 57.5472 -58.8194
lradius 12.6293
lwrist 1.12565
lhand -27.5503 16.9562
lfingers 7.12502
lthumb -0.95158 46.9339
rfemur 10.6264 19.8178 14.6602
rtibia 17.2675
rfoot -32.7118 -25.4522
rtoes -10.1897
lfemur -1.52549 -18.8026 -17.8206
ltibia 32.6504
lfoot -28.4199 5.6029
ltoes 0.635755
79
root 0.992479 17.1213 0.223652 859.353 -92.9105 -866.535
lowerback 12.6343 -3.08465 -1.42754
upperback 5.42668 -4.55792 -2.49396
thorax -1.47582 -2.37507 -1.16365
lowerneck 17.1652 3.60535 3.23008
upperneck 17.7787 3.9733 -0.858043
head 3.0738 1.61675 -0.949764
rclavicle -3.16068e-014 -1.66979e-014
rhumerus -218.181 211.277 156.309
rradius 9.20294
rwrist 351.414
rhand -38.0995 1.46904
rfingers 7.12502
rthumb -11.1352 -28.2155
lclavicle -3.16068e-014 -1.66979e-014
lhumerus -117.867 55.6246 -70.3634
lradius 11.3214
lwrist -9.6199
lhand -26.9834 16.3434
lfingers 7.12502
lthumb -0.404009 46.3228
rfemur 10.9685 20.5262 15.0749
rtibia 17.1569
rfoot -33.4882 -26.0373
rtoes -9.99052
lfemur -1.51366 -18.6983 -17.7775
ltibia 32.6976
lfoot -28.3224 5.57316
ltoes 0.507246
80
root 1.02031 17.1147 0.222148 860.686 -92.9931 -868.016
lowerback 12.9007 -3.05545 -1.39606
upperback 5.50062 -4.52735 -2.49753
thorax -1.54421 -2.36179 -1.17602
lowerneck 15.9991 3.59217 3.06953
upperneck 17.7323 3.96377 -0.710312
head 3.22954 1.62949 -0.856553
rclavicle 6.9674e-014 -1.59028e-015
rhumerus -215.341 208.276 148.746
rradius 6.65206
rwrist 349.095
rhand -38.2848 0.824977
rfingers 7.12502
rthumb -11.3139 -28.8499
lclavicle 6.9674e-014 -1.59028e-015
lhumerus -130.85 50.9159 -82.6054
lradius 10.0842
lwrist -23.2194
lhand -26.8306 15.7043
lfingers 7.12502
lthumb -0.256483 45.6839
rfemur 11.2737 21.2036 15.4306
rtibia 17.0486
rfoot -34.1995 -26.5458
rtoes -9.74745
lfemur -1.51511 -18.6262 -17.7728
ltibia 32.7443
lfoot -28.2422 5.60158
ltoes 0.26101
81
root 1.04913 17.1092 0.221509 862.086 -93.0704 -869.583
lowerback 13.1885 -3.03752 -1.34002
upperback 5.55869 -4.50893 -2.50099
thorax -1.64243 -2.35379 -1.19853
lowerneck 14.7915 3.59791 2.85251
upperneck 17.7597 3.96192 -0.50906
head 3.42004 1.64226 -0.735489
rclavicle 6.26172e-015 -1.59028e-015
rhumerus -213.43 204.915 141.712
rradius 5.76198
rwrist 346.422
rhand -37.5335 -0.202529
rfingers 7.12502
rthumb -10.5893 -29.9157
lclavicle 6.26172e-015 -1.59028e-015
lhumerus -120.211 58.3765 -65.8849
lradius 8.41644
lwrist -16.3281
lhand -29.538 17.83
lfingers 7.12502
lthumb -2.87132 47.7904
rfemur 11.5741 21.6639 15.7251
rtibia 16.933
rfoot -34.7488 -26.8945
rtoes -9.46127
lfemur -1.50154 -18.5873 -17.7653
ltibia 32.7933
lfoot -28.1541 5.61766
ltoes 0.275774
82
root 1.07836 17.1049 0.220642 863.252 -93.1483 -870.894
lowerback 13.4164 -3.00232 -1.2682
upperback 5.63438 -4.46459 -2.52184
thorax -1.6919 -2.33315 -1.25611
lowerneck 13.5331 3.57777 2.66243
upperneck 17.7737 3.93564 -0.324811
head 3.61949 1.64622 -0.623395
rclavicle 5.20816e-014 6.36111e-015
rhumerus -211.483 201.45 134.915
rradius 4.84162
rwrist 343.582
rhand -36.5601 -0.884206
rfingers 7.12502
rthumb -9.65027 -30.6432
lclavicle 5.20816e-014 6.36111e-015
lhumerus -102.957 64.1193 -43.1353
lradius 5.80244
lwrist -9.25182
lhand -32.5824 19.0751
lfingers 7.12502
lthumb -5.81106 48.9754
rfemur 11.7885 21.9428 15.9252
rtibia 16.8481
rfoot -35.1063 -27.1223
rtoes -9.3138
lfemur -1.51068 -18.5245 -17.7531
ltibia 32.8326
lfoot -28.0422 5.63873
ltoes 0.155174
83
root 1.10816 17.1016 0.219735 864.576 -93.2054 -872.365
lowerback 13.6694 -2.9753 -1.18786
upperback 5.66982 -4.42851 -2.52054
thorax -1.79564 -2.31542 -1.29153
lowerneck 12.3023 3.6009 2.22408
upperneck 17.8182 3.92757 -0.00848242
head 3.82042 1.64592 -0.425184
rclavicle -1.32192e-014 -1.74931e-014
rhumerus -209.556 197.655 128.487
rradius 4.01708
rwrist 340.49
rhand -35.5155 -1.17941
rfingers 7.12502
rthumb -8.64224 -30.9825
lclavicle -1.32192e-014 -1.74931e-014
lhumerus -79.9898 65.7363 -14.2564
lradius 5.00326
lwrist -2.09114
lhand -34.1369 20.1081
lfingers 7.12502
lthumb -7.31168 49.9618
rfemur 11.9515 22.0339 16.0704
rtibia 16.7802
rfoot -35.2749 -27.2175
rtoes -9.10949
lfemur -1.51182 -18.5244 -17.7291
ltibia 32.8672
lfoot -27.9391 5.67991
ltoes 0.137958
84
root 1.13809 17.0986 0.218873 865.678 -93.2478 -873.603
lowerback 13.875 -2.92814 -1.0831
upperback 5.70929 -4.36158 -2.53529
thorax -1.87196 -2.28211 -1.36515
lowerneck 11.1224 3.61613 1.69571
upperneck 17.828 3.90495 0.363597
head 4.0011 1.63558 -0.193003
rclavicle 2.46493e-014 -7.95139e-015
rhumerus -207.752 193.624 122.492
rradius 3.45462
rwrist 337.346
rhand -34.5003 -1.30335
rfingers 7.12502
rthumb -7.6625 -31.1445
lclavicle 2.46493e-014 -7.95139e-015
lhumerus -57.2624 62.9237 13.8315
lradius 4.26721
lwrist 5.44879
lhand -35.1533 20.9504
lfingers 7.12502
lthumb -8.29275 50.7677
rfemur 12.058 22.0625 16.1646
rtibia 16.7288
rfoot -35.3498 -27.2542
rtoes -9.00245
lfemur -1.50591 -18.5932 -17.7219
ltibia 32.8937
lfoot -27.8574 5.7675
ltoes 0.233239
85
root 1.16796 17.0972 0.21888 866.66 -93.2868 -874.732
lowerback 14.0708 -2.89593 -0.96279
upperback 5.75548 -4.31281 -2.57057
thorax -1.93866 -2.25785 -1.46725
lowerneck 9.93609 3.64038 1.14686
upperneck 17.8799 3.89535 0.762793
head 4.20318 1.63112 0.0537467
rclavicle -5.66536e-015 -2.38542e-015
rhumerus -205.996 189.282 116.871
rradius 3.25977
rwrist 334.234
rhand -33.6399 -1.44978
rfingers 7.12502
rthumb -6.83196 -31.3196
lclavicle -5.66536e-015 -2.38542e-015
lhumerus -40.8491 56.5303 35.1554
lradius 4.0474
lwrist 13.2992
lhand -35.3174 21.6788
lfingers 7.12502
lthumb -8.45106 51.4897
rfemur 12.1297 21.9467 16.1988
rtibia 16.6959
rfoot -35.2399 -27.2456
rtoes -8.89977
lfemur -1.49215 -18.6297 -17.7084
ltibia 32.913
lfoot -27.7774 5.80328
ltoes 0.297239
86
root 1.19837 17.0949 0.218573 867.613 -93.317 -875.835
lowerback 14.2731 -2.85226 -0.837814
upperback 5.7773 -4.2472 -2.60159
thorax -2.03355 -2.22456 -1.56936
lowerneck 8.81801 3.616 0.765471
upperneck 17.9699 3.84623 1.05457
head 4.42012 1.61292 0.237074
rclavicle -4.67144e-014 3.18055e-015
rhumerus -204.27 184.633 111.696
rradius 3.30916
rwrist 331.228
rhand -32.9021 -1.53062
rfingers 7.12502
rthumb -6.11972 -31.4222
lclavicle -4.67144e-014 3.18055e-015
lhumerus -30.422 47.9196 50.0812
lradius 4.42575
lwrist 21.5142
lhand -34.722 22.2076
lfingers 7.12502
lthumb -7.87649 52.0409
rfemur 12.1823 21.8234 16.2251
rtibia 16.6799
rfoot -35.1217 -27.1959
rtoes -8.84131
lfemur -1.46645 -18.6858 -17.7024
ltibia 32.9228
lfoot -27.659 5.90365
ltoes 0.275532
87
root 1.22813 17.0941 0.218797 868.283 -93.3243 -876.652
lowerback 14.431 -2.81255 -0.727255
upperback 5.80787 -4.18713 -2.62779
thorax -2.0938 -2.19451 -1.66072
lowerneck 7.70284 3.56637 0.502581
upperneck 18.0796 3.78684 1.22469
head 4.65543 1.59243 0.36087
rclavicle 2.45499e-014 1.82882e-014
rhumerus -202.506 179.65 106.909
rradius 3.65843
rwrist 328.22
rhand -32.4211 -1.50372
rfingers 7.12502
rthumb -5.65533 -31.4083
lclavicle 2.45499e-014 1.82882e-014
lhumerus -23.8066 38.0883 60.6726
lradius 5.30237
lwrist 29.8943
lhand -33.443 22.6903
lfingers 7.12502
lthumb -6.64184 52.5661
rfemur 12.1954 21.6239 16.2063
rtibia 16.6765
rfoot -34.8301 -27.1634
rtoes -8.92303
lfemur -1.42322 -18.7729 -17.7071
ltibia 32.9278
lfoot -27.6071 5.99484
ltoes 0.242966
88
root 1.25779 17.0939 0.219479 869.292 -93.3233 -877.799
lowerback 14.5556 -2.7684 -0.549101
upperback 5.83659 -4.11198 -2.68397
thorax -2.14419 -2.15596 -1.82571
lowerneck 6.58165 3.49136 0.314388
upperneck 18.2466 3.69698 1.37494
head 4.92173 1.5596 0.466478
rclavicle 1.09332e-014 -3.97569e-015
rhumerus -200.933 174.488 102.493
rradius 4.62097
rwrist 325.289
rhand -32.1388 -1.52184
rfingers 7.12502
rthumb -5.38272 -31.4335
lclavicle 1.09332e-014 -3.97569e-015
lhumerus -19.4706 27.3709 68.4096
lradius 6.77564
lwrist 38.405
lhand -31.61 22.8904
lfingers 7.12502
lthumb -4.87217 52.8143
rfemur 12.1735 21.314 16.1572
rtibia 16.6859
rfoot -34.5344 -26.9751
rtoes -8.83223
lfemur -1.41068 -18.8044 -17.6714
ltibia 32.9374
lfoot -27.4947 6.06822
ltoes 0.26478
89
root 1.2894 17.0931 0.220164 869.747 -93.2971 -878.403
lowerback 14.6957 -2.72257 -0.399901
upperback 5.85934 -4.0386 -2.73826
thorax -2.20638 -2.11871 -1.97172
lowerneck 5.2083 3.42742 0.134847
upperneck 19.0763 3.61018 1.54122
head 4.86285 1.53554 0.522958
rclavicle 2.52457e-014 -3.97569e-015
rhumerus -199.459 169.008 98.529
rradius 6.12103
rwrist 322.151
rhand -31.9828 -1.41348
rfingers 7.12502
rthumb -5.23213 -31.3289
lclavicle 2.52457e-014 -3.97569e-015
lhumerus -16.5818 16.1323 74.2338
lradius 9.02331
lwrist 47.0226
lhand -29.7162 23.0995
lfingers 7.12502
lthumb -3.04342 53.0575
rfemur 12.1245 21.0285 16.0835
rtibia 16.7211
rfoot -34.1742 -26.8114
rtoes -8.96771
lfemur -1.37621 -18.7732 -17.6423
ltibia 32.9405
lfoot -27.3738 6.086
ltoes 0.153115
